<svg xmlns="http://www.w3.org/2000/svg" version="1.1" xmlns:xlink="http://www.w3.org/1999/xlink" xmlns:svgjs="http://svgjs.dev/svgjs" width="1500" height="1500" viewBox="0 0 1500 1500"><rect width="1500" height="1500" fill="#000000"></rect><g transform="matrix(0.6666666666666666,0,0,0.6666666666666666,249.18075103142382,400.8774193548387)"><svg viewBox="0 0 356 248" data-background-color="#50a060" preserveAspectRatio="xMidYMid meet" height="1044" width="1500" xmlns="http://www.w3.org/2000/svg" xmlns:xlink="http://www.w3.org/1999/xlink"><g id="tight-bounds" transform="matrix(1,0,0,1,0.2916526328131397,0.4000000000000057)"><svg viewBox="0 0 355.4166947343737 247.2" height="247.2" width="355.4166947343737"><g><svg viewBox="0 0 395.52 275.09271637639824" height="247.2" width="355.4166947343737"><g transform="matrix(1,0,0,1,0,165.8589794310838)"><svg viewBox="0 0 395.52 109.23373694531446" height="109.23373694531446" width="395.52"><g id="textblocktransform"><svg viewBox="0 0 395.52 109.23373694531446" height="109.23373694531446" width="395.52" id="textblock"><g><svg viewBox="0 0 395.52 63.1066053841103" height="63.1066053841103" width="395.52"><g transform="matrix(1,0,0,1,0,0)"><svg width="395.52" viewBox="3.75 -33.33 211.51 33.75" height="63.1066053841103" data-palette-color="#454545"><g class="wordmark-text-0" data-fill-palette-color="primary" id="text-0"><path d="M13.89 0.42L13.89 0.42Q10.94 0.42 8.65-0.89 6.35-2.19 5.05-4.5 3.75-6.81 3.75-9.83L3.75-9.83 3.75-31.25 7.71-31.25 7.71-9.97Q7.71-6.88 9.48-5 11.25-3.13 13.96-3.13L13.96-3.13Q16.63-3.13 18.42-4.98 20.21-6.84 20.21-9.83L20.21-9.83 20.21-31.25 24.03-31.25 24.03-9.97Q24.03-6.91 22.73-4.57 21.42-2.22 19.15-0.9 16.88 0.42 13.89 0.42ZM34.86 0L31.11 0 31.11-20.83 34.58-20.83 34.58-17.01Q35.69-18.85 37.53-19.95 39.37-21.04 41.91-21.04L41.91-21.04 42.84-17.29Q42.19-17.5 41.32-17.5L41.32-17.5Q38.4-17.5 36.63-15.64 34.86-13.78 34.86-10.35L34.86-10.35 34.86 0ZM57.53 0.28L57.53 0.28Q55.38 0.28 53.5-0.54 51.63-1.35 50.2-2.74L50.2-2.74 50.2 0 46.73 0 46.73-33.33 50.48-33.33 50.48-18.37Q51.87-19.65 53.68-20.38 55.48-21.11 57.53-21.11L57.53-21.11Q60.41-21.11 62.76-19.67 65.1-18.23 66.51-15.8 67.91-13.37 67.91-10.42L67.91-10.42Q67.91-7.47 66.51-5.03 65.1-2.6 62.76-1.16 60.41 0.28 57.53 0.28ZM57.04-3.13L57.04-3.13Q59.02-3.13 60.64-4.11 62.25-5.1 63.21-6.75 64.16-8.4 64.16-10.42L64.16-10.42Q64.16-12.43 63.21-14.08 62.25-15.73 60.64-16.72 59.02-17.71 57.04-17.71L57.04-17.71Q55.06-17.71 53.45-16.72 51.84-15.73 50.88-14.08 49.93-12.43 49.93-10.42L49.93-10.42Q49.93-8.4 50.88-6.75 51.84-5.1 53.45-4.11 55.06-3.13 57.04-3.13ZM82.04 0.28L82.04 0.28Q79.19 0.28 76.83-1.16 74.47-2.6 73.07-5.03 71.66-7.47 71.66-10.42L71.66-10.42Q71.66-13.37 73.07-15.8 74.47-18.23 76.83-19.67 79.19-21.11 82.04-21.11L82.04-21.11Q84.19-21.11 86.09-20.31 87.98-19.51 89.37-18.09L89.37-18.09 89.37-20.83 92.84-20.83 92.84 0 89.37 0 89.37-2.74Q87.98-1.35 86.09-0.54 84.19 0.28 82.04 0.28ZM82.53-3.13L82.53-3.13Q84.51-3.13 86.12-4.11 87.74-5.1 88.69-6.75 89.65-8.4 89.65-10.42L89.65-10.42Q89.65-12.43 88.69-14.08 87.74-15.73 86.12-16.72 84.51-17.71 82.53-17.71L82.53-17.71Q80.55-17.71 78.93-16.72 77.32-15.73 76.36-14.08 75.41-12.43 75.41-10.42L75.41-10.42Q75.41-8.4 76.36-6.75 77.32-5.1 78.93-4.11 80.55-3.13 82.53-3.13ZM103.25 0L99.5 0 99.5-20.83 102.98-20.83 102.98-17.47Q104.12-19.31 105.94-20.28 107.77-21.25 109.89-21.25L109.89-21.25Q112.11-21.25 114-20.16 115.89-19.06 117.07-17 118.25-14.93 118.25-11.98L118.25-11.98 118.25 0 114.5 0 114.5-11.46Q114.5-13.92 113.03-15.82 111.55-17.71 108.88-17.71L108.88-17.71Q106.69-17.71 104.97-16.13 103.25-14.55 103.25-11.56L103.25-11.56 103.25 0ZM129.29 0L125.54 0 125.54-32.29 140.06-12.29 154.29-32.29 154.29 0 150.33 0 150.33-14.44Q150.33-15.87 150.37-17.55 150.4-19.24 150.61-21.39L150.61-21.39Q149.54-19.48 148.51-18.04 147.49-16.6 146.65-15.38L146.65-15.38 139.92-5.83 132.97-15.38Q132.11-16.6 131.12-18.04 130.13-19.48 129.02-21.39L129.02-21.39Q129.22-19.24 129.26-17.55 129.29-15.87 129.29-14.44L129.29-14.44 129.29 0ZM170.92 0.28L170.92 0.28Q168.08 0.28 165.71-1.16 163.35-2.6 161.95-5.03 160.54-7.47 160.54-10.42L160.54-10.42Q160.54-13.37 161.95-15.8 163.35-18.23 165.71-19.67 168.08-21.11 170.92-21.11L170.92-21.11Q173.08-21.11 174.97-20.31 176.86-19.51 178.25-18.09L178.25-18.09 178.25-20.83 181.72-20.83 181.72 0 178.25 0 178.25-2.74Q176.86-1.35 174.97-0.54 173.08 0.28 170.92 0.28ZM171.41-3.13L171.41-3.13Q173.39-3.13 175-4.11 176.62-5.1 177.57-6.75 178.53-8.4 178.53-10.42L178.53-10.42Q178.53-12.43 177.57-14.08 176.62-15.73 175-16.72 173.39-17.71 171.41-17.71L171.41-17.71Q169.43-17.71 167.81-16.72 166.2-15.73 165.25-14.08 164.29-12.43 164.29-10.42L164.29-10.42Q164.29-8.4 165.25-6.75 166.2-5.1 167.81-4.11 169.43-3.13 171.41-3.13ZM192.14 0L188.39 0 188.39-20.83 191.86-20.83 191.86-17.01Q192.97-18.85 194.81-19.95 196.65-21.04 199.18-21.04L199.18-21.04 200.12-17.29Q199.46-17.5 198.59-17.5L198.59-17.5Q195.68-17.5 193.91-15.64 192.14-13.78 192.14-10.35L192.14-10.35 192.14 0ZM210.19 0L206.44 0 206.44-17.71 201.72-17.71 201.72-20.83 206.54-20.83 206.54-27.78 210.08-27.78 210.08-20.83 215.26-20.83 215.26-17.71 210.19-17.71 210.19 0Z" fill="#ffffff" data-fill-palette-color="primary"></path></g></svg></g></svg></g><g transform="matrix(1,0,0,1,0,78.00456035676953)"><svg viewBox="0 0 395.52 31.229176588544927" height="31.229176588544927" width="395.52"><g transform="matrix(1,0,0,1,0,0)"><svg width="395.52" viewBox="0.42 -33.33 554.0300000000001 43.75" height="31.229176588544927" data-palette-color="#454545"><path d="M19.72-19.24L12.47 1.04 0.42-31.25 4.44-31.25 11.53-12.5Q11.91-11.53 12.15-10.64 12.4-9.76 12.67-8.54L12.67-8.54Q12.95-9.76 13.21-10.64 13.47-11.53 13.82-12.5L13.82-12.5 20.97-32.29 28.09-12.5Q28.4-11.63 28.7-10.75 28.99-9.86 29.24-8.54L29.24-8.54Q29.51-9.86 29.79-10.75 30.07-11.63 30.42-12.5L30.42-12.5 37.5-31.25 41.25-31.25 29.24 1.04 22.01-19.24Q21.7-20.14 21.42-20.99 21.15-21.84 20.87-23.16L20.87-23.16Q20.59-21.84 20.31-20.99 20.03-20.14 19.72-19.24L19.72-19.24ZM48.75 0L45 0 45-33.33 48.75-33.33 48.75-17.88Q49.93-19.51 51.66-20.38 53.4-21.25 55.38-21.25L55.38-21.25Q57.6-21.25 59.49-20.16 61.39-19.06 62.57-17 63.75-14.93 63.75-11.98L63.75-11.98 63.75 0 60 0 60-11.46Q60-13.92 58.52-15.82 57.05-17.71 54.37-17.71L54.37-17.71Q52.19-17.71 50.47-16.13 48.75-14.55 48.75-11.56L48.75-11.56 48.75 0ZM79.93 0.42L79.93 0.42Q76.66 0.42 74.07-1.04 71.49-2.5 70.01-5.02 68.54-7.53 68.54-10.63L68.54-10.63Q68.54-13.58 69.96-15.99 71.38-18.4 73.8-19.83 76.21-21.25 79.13-21.25L79.13-21.25Q82.01-21.25 84.4-19.88 86.8-18.51 88.22-16.18 89.65-13.85 89.65-10.9L89.65-10.9 89.65-9.38 76.04-9.38Q75.13-9.38 74.2-9.44 73.26-9.51 72.36-9.65L72.36-9.65Q72.74-6.88 74.87-5 77.01-3.13 79.96-3.13L79.96-3.13Q81.94-3.13 83.64-4.03 85.34-4.93 86.38-6.42L86.38-6.42 87.43-2.15Q85.93-0.94 84.01-0.26 82.08 0.42 79.93 0.42ZM72.25-12.19L72.25-12.19Q74.13-12.5 76.04-12.5L76.04-12.5 82.95-12.5Q83.71-12.5 84.46-12.45 85.2-12.4 85.97-12.33L85.97-12.33Q85.48-14.76 83.54-16.34 81.59-17.92 79.13-17.92L79.13-17.92Q76.59-17.92 74.68-16.23 72.77-14.55 72.25-12.19ZM98.4 0L94.65 0 94.65-20.83 98.12-20.83 98.12-17.01Q99.23-18.85 101.07-19.95 102.91-21.04 105.44-21.04L105.44-21.04 106.38-17.29Q105.72-17.5 104.85-17.5L104.85-17.5Q101.94-17.5 100.17-15.64 98.4-13.78 98.4-10.35L98.4-10.35 98.4 0ZM120.2 0.42L120.2 0.42Q116.93 0.42 114.35-1.04 111.76-2.5 110.29-5.02 108.81-7.53 108.81-10.63L108.81-10.63Q108.81-13.58 110.23-15.99 111.66-18.4 114.07-19.83 116.48-21.25 119.4-21.25L119.4-21.25Q122.28-21.25 124.68-19.88 127.07-18.51 128.5-16.18 129.92-13.85 129.92-10.9L129.92-10.9 129.92-9.38 116.31-9.38Q115.41-9.38 114.47-9.44 113.53-9.51 112.63-9.65L112.63-9.65Q113.01-6.88 115.15-5 117.28-3.13 120.23-3.13L120.23-3.13Q122.21-3.13 123.91-4.03 125.62-4.93 126.66-6.42L126.66-6.42 127.7-2.15Q126.21-0.94 124.28-0.26 122.35 0.42 120.2 0.42ZM112.52-12.19L112.52-12.19Q114.4-12.5 116.31-12.5L116.31-12.5 123.22-12.5Q123.98-12.5 124.73-12.45 125.48-12.4 126.24-12.33L126.24-12.33Q125.75-14.76 123.81-16.34 121.87-17.92 119.4-17.92L119.4-17.92Q116.87-17.92 114.96-16.23 113.05-14.55 112.52-12.19ZM151.51 0L147.76 0 147.76-17.71 143.04-17.71 143.04-20.83 147.87-20.83 147.87-27.78 151.41-27.78 151.41-20.83 156.58-20.83 156.58-17.71 151.51-17.71 151.51 0ZM164.7 0L160.95 0 160.95-33.33 164.7-33.33 164.7-17.88Q165.89-19.51 167.62-20.38 169.36-21.25 171.34-21.25L171.34-21.25Q173.56-21.25 175.45-20.16 177.34-19.06 178.52-17 179.7-14.93 179.7-11.98L179.7-11.98 179.7 0 175.95 0 175.95-11.46Q175.95-13.92 174.48-15.82 173-17.71 170.33-17.71L170.33-17.71Q168.14-17.71 166.42-16.13 164.7-14.55 164.7-11.56L164.7-11.56 164.7 0ZM195.88 0.42L195.88 0.42Q192.62 0.42 190.03-1.04 187.45-2.5 185.97-5.02 184.49-7.53 184.49-10.63L184.49-10.63Q184.49-13.58 185.92-15.99 187.34-18.4 189.75-19.83 192.17-21.25 195.08-21.25L195.08-21.25Q197.97-21.25 200.36-19.88 202.76-18.51 204.18-16.18 205.61-13.85 205.61-10.9L205.61-10.9 205.61-9.38 191.99-9.38Q191.09-9.38 190.15-9.44 189.22-9.51 188.31-9.65L188.31-9.65Q188.7-6.88 190.83-5 192.97-3.13 195.92-3.13L195.92-3.13Q197.9-3.13 199.6-4.03 201.3-4.93 202.34-6.42L202.34-6.42 203.38-2.15Q201.89-0.94 199.96-0.26 198.04 0.42 195.88 0.42ZM188.21-12.19L188.21-12.19Q190.08-12.5 191.99-12.5L191.99-12.5 198.9-12.5Q199.67-12.5 200.41-12.45 201.16-12.4 201.92-12.33L201.92-12.33Q201.44-14.76 199.49-16.34 197.55-17.92 195.08-17.92L195.08-17.92Q192.55-17.92 190.64-16.23 188.73-14.55 188.21-12.19ZM236.09 0.63L236.09 0.63Q232.72 0.63 229.75-0.64 226.78-1.91 224.54-4.13 222.3-6.35 221.03-9.31 219.77-12.26 219.77-15.63L219.77-15.63Q219.77-18.99 221.03-21.94 222.3-24.9 224.54-27.12 226.78-29.34 229.75-30.61 232.72-31.88 236.09-31.88L236.09-31.88Q239.42-31.88 242.34-30.64 245.25-29.41 247.47-27.26L247.47-27.26 246.33-22.47Q244.73-25.03 242.04-26.58 239.35-28.13 236.09-28.13L236.09-28.13Q232.65-28.13 229.89-26.44 227.13-24.76 225.5-21.93 223.86-19.1 223.86-15.63L223.86-15.63Q223.86-12.19 225.5-9.34 227.13-6.49 229.89-4.81 232.65-3.13 236.09-3.13L236.09-3.13Q239.38-3.13 242.06-4.69 244.73-6.25 246.33-8.78L246.33-8.78 247.47-3.99Q245.25-1.88 242.34-0.63 239.42 0.63 236.09 0.63ZM256.01 0L252.26 0 252.26-20.83 256.01-20.83 256.01 0ZM254.14-24.58L254.14-24.58Q253.1-24.58 252.37-25.31 251.64-26.04 251.64-27.08L251.64-27.08Q251.64-28.16 252.37-28.87 253.1-29.58 254.14-29.58L254.14-29.58Q255.22-29.58 255.93-28.87 256.64-28.16 256.64-27.08L256.64-27.08Q256.64-26.04 255.93-25.31 255.22-24.58 254.14-24.58ZM268.86 0L265.11 0 265.11-17.71 260.39-17.71 260.39-20.83 265.21-20.83 265.21-27.78 268.75-27.78 268.75-20.83 273.93-20.83 273.93-17.71 268.86-17.71 268.86 0ZM281.5 10.42L277.43 10.42 284.2-3.06 275.38-20.83 279.62-20.83 284.06-11.81Q284.66-10.59 285.21-9.41 285.77-8.23 286.32-6.56L286.32-6.56Q286.91-8.23 287.45-9.43 287.99-10.63 288.61-11.81L288.61-11.81 293.13-20.83 297.12-20.83 281.5 10.42ZM319.06 0.42L319.06 0.42Q316.28 0.42 314.04-0.69 311.8-1.81 310.48-3.4L310.48-3.4 311.63-8.19Q312.6-6.25 314.55-4.69 316.49-3.13 319.2-3.13L319.2-3.13Q321.66-3.13 323.28-4.69 324.89-6.25 324.89-8.54L324.89-8.54Q324.89-10.21 324.09-11.28 323.3-12.36 322.29-12.99 321.28-13.61 320.69-13.89L320.69-13.89 316.87-15.83Q315.97-16.32 314.63-17.19 313.3-18.06 312.29-19.58 311.28-21.11 311.28-23.54L311.28-23.54Q311.28-25.9 312.38-27.74 313.47-29.58 315.43-30.63 317.39-31.67 319.93-31.67L319.93-31.67Q322.43-31.67 324.34-30.78 326.25-29.9 327.32-28.96L327.32-28.96 326.18-24.17Q325.31-25.63 323.61-26.91 321.91-28.19 319.75-28.19L319.75-28.19Q317.67-28.19 316.42-26.96 315.17-25.73 315.17-23.92L315.17-23.92Q315.17-22.53 315.81-21.63 316.46-20.73 317.27-20.21 318.09-19.69 318.61-19.41L318.61-19.41 322.5-17.47Q323.19-17.12 324.25-16.49 325.31-15.87 326.35-14.84 327.39-13.82 328.09-12.34 328.78-10.87 328.78-8.78L328.78-8.78Q328.78-6.11 327.51-4.03 326.25-1.94 324.06-0.76 321.87 0.42 319.06 0.42ZM337.95 0L334.2 0 334.2-33.33 337.95-33.33 337.95-17.88Q339.13-19.51 340.86-20.38 342.6-21.25 344.58-21.25L344.58-21.25Q346.8-21.25 348.69-20.16 350.59-19.06 351.77-17 352.95-14.93 352.95-11.98L352.95-11.98 352.95 0 349.2 0 349.2-11.46Q349.2-13.92 347.72-15.82 346.24-17.71 343.57-17.71L343.57-17.71Q341.38-17.71 339.66-16.13 337.95-14.55 337.95-11.56L337.95-11.56 337.95 0ZM368.71 0.42L368.71 0.42Q365.69 0.42 363.19-1.04 360.69-2.5 359.21-4.97 357.74-7.43 357.74-10.42L357.74-10.42Q357.74-13.44 359.21-15.89 360.69-18.33 363.19-19.79 365.69-21.25 368.71-21.25L368.71-21.25Q371.76-21.25 374.25-19.79 376.73-18.33 378.2-15.89 379.68-13.44 379.68-10.42L379.68-10.42Q379.68-7.43 378.2-4.97 376.73-2.5 374.25-1.04 371.76 0.42 368.71 0.42ZM368.71-3.13L368.71-3.13Q370.72-3.13 372.35-4.11 373.99-5.1 374.96-6.75 375.93-8.4 375.93-10.42L375.93-10.42Q375.93-12.43 374.96-14.08 373.99-15.73 372.35-16.72 370.72-17.71 368.71-17.71L368.71-17.71Q366.69-17.71 365.06-16.72 363.43-15.73 362.46-14.08 361.49-12.43 361.49-10.42L361.49-10.42Q361.49-8.4 362.46-6.75 363.43-5.1 365.06-4.11 366.69-3.13 368.71-3.13ZM388.64 10.42L384.89 10.42 384.89-20.83 388.36-20.83 388.36-18.09Q389.78-19.51 391.66-20.31 393.53-21.11 395.68-21.11L395.68-21.11Q398.57-21.11 400.91-19.67 403.25-18.23 404.66-15.8 406.07-13.37 406.07-10.42L406.07-10.42Q406.07-7.47 404.66-5.03 403.25-2.6 400.91-1.16 398.57 0.28 395.68 0.28L395.68 0.28Q393.64 0.28 391.83-0.45 390.02-1.18 388.64-2.47L388.64-2.47 388.64 10.42ZM395.2-3.13L395.2-3.13Q397.18-3.13 398.79-4.11 400.41-5.1 401.36-6.75 402.32-8.4 402.32-10.42L402.32-10.42Q402.32-12.43 401.36-14.08 400.41-15.73 398.79-16.72 397.18-17.71 395.2-17.71L395.2-17.71Q393.22-17.71 391.6-16.72 389.99-15.73 389.03-14.08 388.08-12.43 388.08-10.42L388.08-10.42Q388.08-8.4 389.03-6.75 389.99-5.1 391.6-4.11 393.22-3.13 395.2-3.13ZM416.65 0.42L416.65 0.42Q415.06 0.42 413.23-0.19 411.41-0.8 410.09-2.22L410.09-2.22 411.13-6.32Q412.11-4.69 413.63-3.73 415.16-2.78 416.9-2.78L416.9-2.78Q418.56-2.78 419.4-3.59 420.23-4.41 420.23-5.59L420.23-5.59Q420.23-6.94 419.34-7.57 418.46-8.19 417.77-8.44L417.77-8.44 414.95-9.51Q414.19-9.83 413.11-10.43 412.04-11.04 411.24-12.19 410.44-13.33 410.44-15.17L410.44-15.17Q410.44-16.84 411.24-18.23 412.04-19.62 413.49-20.43 414.95-21.25 416.93-21.25L416.93-21.25Q418.49-21.25 420.2-20.69 421.9-20.14 423.08-18.82L423.08-18.82 422.04-14.72Q421.2-16.25 419.78-17.15 418.36-18.06 416.83-18.06L416.83-18.06Q415.4-18.06 414.59-17.26 413.77-16.46 413.77-15.42L413.77-15.42Q413.77-14.58 414.33-13.92 414.88-13.26 415.99-12.85L415.99-12.85 418.81-11.77Q419.57-11.49 420.7-10.87 421.83-10.24 422.7-9.06 423.56-7.88 423.56-5.87L423.56-5.87Q423.56-3.06 421.6-1.32 419.64 0.42 416.65 0.42ZM447.17 0.42L447.17 0.42Q444.39 0.42 442.15-0.69 439.91-1.81 438.59-3.4L438.59-3.4 439.74-8.19Q440.71-6.25 442.66-4.69 444.6-3.13 447.31-3.13L447.31-3.13Q449.77-3.13 451.39-4.69 453-6.25 453-8.54L453-8.54Q453-10.21 452.2-11.28 451.41-12.36 450.4-12.99 449.39-13.61 448.8-13.89L448.8-13.89 444.98-15.83Q444.08-16.32 442.74-17.19 441.41-18.06 440.4-19.58 439.39-21.11 439.39-23.54L439.39-23.54Q439.39-25.9 440.49-27.74 441.58-29.58 443.54-30.63 445.5-31.67 448.04-31.67L448.04-31.67Q450.54-31.67 452.45-30.78 454.36-29.9 455.43-28.96L455.43-28.96 454.29-24.17Q453.42-25.63 451.72-26.91 450.02-28.19 447.86-28.19L447.86-28.19Q445.78-28.19 444.53-26.96 443.28-25.73 443.28-23.92L443.28-23.92Q443.28-22.53 443.92-21.63 444.57-20.73 445.38-20.21 446.2-19.69 446.72-19.41L446.72-19.41 450.61-17.47Q451.3-17.12 452.36-16.49 453.42-15.87 454.46-14.84 455.5-13.82 456.2-12.34 456.89-10.87 456.89-8.78L456.89-8.78Q456.89-6.11 455.62-4.03 454.36-1.94 452.17-0.76 449.98 0.42 447.17 0.42ZM466.06 0L462.31 0 462.31-20.83 465.78-20.83 465.78-17.85Q466.92-19.55 468.68-20.4 470.43-21.25 472.38-21.25L472.38-21.25Q474.49-21.25 476.26-20.26 478.04-19.27 479.11-17.5L479.11-17.5Q480.33-19.38 482.25-20.31 484.18-21.25 486.33-21.25L486.33-21.25Q488.7-21.25 490.66-20.14 492.62-19.03 493.78-17.03 494.95-15.03 494.95-12.33L494.95-12.33 494.95 0 491.2 0 491.2-11.88Q491.2-14.72 489.58-16.2 487.97-17.67 485.85-17.67L485.85-17.67Q484.53-17.67 483.3-17.08 482.06-16.49 481.28-15.24 480.5-13.99 480.5-11.98L480.5-11.98 480.5 0 476.75 0 476.75-11.88Q476.75-13.85 475.97-15.14 475.19-16.42 473.96-17.07 472.72-17.71 471.4-17.71L471.4-17.71Q470.12-17.71 468.89-17.12 467.65-16.53 466.85-15.28 466.06-14.03 466.06-11.98L466.06-11.98 466.06 0ZM510.12 0.28L510.12 0.28Q507.27 0.28 504.91-1.16 502.55-2.6 501.14-5.03 499.73-7.47 499.73-10.42L499.73-10.42Q499.73-13.37 501.14-15.8 502.55-18.23 504.91-19.67 507.27-21.11 510.12-21.11L510.12-21.11Q512.27-21.11 514.16-20.31 516.05-19.51 517.44-18.09L517.44-18.09 517.44-20.83 520.91-20.83 520.91 0 517.44 0 517.44-2.74Q516.05-1.35 514.16-0.54 512.27 0.28 510.12 0.28ZM510.6-3.13L510.6-3.13Q512.58-3.13 514.2-4.11 515.81-5.1 516.77-6.75 517.72-8.4 517.72-10.42L517.72-10.42Q517.72-12.43 516.77-14.08 515.81-15.73 514.2-16.72 512.58-17.71 510.6-17.71L510.6-17.71Q508.62-17.71 507.01-16.72 505.39-15.73 504.44-14.08 503.48-12.43 503.48-10.42L503.48-10.42Q503.48-8.4 504.44-6.75 505.39-5.1 507.01-4.11 508.62-3.13 510.6-3.13ZM531.33 0L527.58 0 527.58-20.83 531.05-20.83 531.05-17.01Q532.16-18.85 534-19.95 535.84-21.04 538.38-21.04L538.38-21.04 539.32-17.29Q538.66-17.5 537.79-17.5L537.79-17.5Q534.87-17.5 533.1-15.64 531.33-13.78 531.33-10.35L531.33-10.35 531.33 0ZM549.38 0L545.63 0 545.63-17.71 540.91-17.71 540.91-20.83 545.74-20.83 545.74-27.78 549.28-27.78 549.28-20.83 554.45-20.83 554.45-17.71 549.38-17.71 549.38 0Z" opacity="1" transform="matrix(1,0,0,1,0,0)" fill="#ffffff" class="slogan-text-1" data-fill-palette-color="secondary" id="text-1"></path></svg></g></svg></g></svg></g></svg></g><g transform="matrix(1,0,0,1,130.04860691644052,0)"><svg viewBox="0 0 135.42278616711891 150.9610244584246" height="150.9610244584246" width="135.42278616711891"><g><svg xmlns="http://www.w3.org/2000/svg" xmlns:xlink="http://www.w3.org/1999/xlink" version="1.1" x="0" y="0" viewBox="7.87 3.285 84.261 93.929" enable-background="new 0 0 100 100" xml:space="preserve" height="150.9610244584246" width="135.42278616711891" class="icon-icon-0" data-fill-palette-color="accent" id="icon-0"><g fill="#454545" data-fill-palette-color="accent"><path fill="#ffffff" d="M66.018 82.742L66.192 82.642A0.8 0.8 0 0 1 66.018 82.522z" data-fill-palette-color="accent"></path><path d="M52.426 46.137L55.604 44.241A0.98 0.98 0 0 0 56.032 43.486V39.34C56.032 39.066 55.839 38.957 55.604 39.097L52.426 40.994A0.98 0.98 0 0 0 51.998 41.749V45.895C51.998 46.168 52.191 46.278 52.426 46.137" fill="#ffffff" data-fill-palette-color="accent"></path><path d="M52.426 55.803L55.604 53.906A0.98 0.98 0 0 0 56.032 53.151V49.005C56.032 48.732 55.839 48.622 55.604 48.763L52.426 50.661A0.98 0.98 0 0 0 51.998 51.414V55.561C51.998 55.834 52.191 55.943 52.426 55.803" fill="#ffffff" data-fill-palette-color="accent"></path><path d="M52.426 65.469L55.604 63.571A0.98 0.98 0 0 0 56.032 62.817V58.672C56.032 58.397 55.839 58.287 55.604 58.428L52.426 60.326A0.98 0.98 0 0 0 51.998 61.079V65.225C51.998 65.499 52.191 65.609 52.426 65.469" fill="#ffffff" data-fill-palette-color="accent"></path><path d="M52.426 75.135L55.604 73.237A0.98 0.98 0 0 0 56.032 72.484V68.337C56.032 68.063 55.839 67.954 55.604 68.095L52.426 69.992A0.98 0.98 0 0 0 51.998 70.746V74.892C51.998 75.165 52.191 75.275 52.426 75.135" fill="#ffffff" data-fill-palette-color="accent"></path><path d="M26.135 72.448L29.31 70.552A0.98 0.98 0 0 0 29.738 69.797V65.651C29.738 65.377 29.545 65.267 29.31 65.408L26.135 67.305A0.98 0.98 0 0 0 25.707 68.059V72.205C25.708 72.481 25.9 72.59 26.135 72.448" fill="#ffffff" data-fill-palette-color="accent"></path><path d="M55.604 82.902A0.98 0.98 0 0 0 56.032 82.147V78.001C56.032 77.727 55.839 77.618 55.604 77.759L52.426 79.655A0.98 0.98 0 0 0 51.998 80.41V84.556C51.998 84.831 52.191 84.939 52.426 84.798z" fill="#ffffff" data-fill-palette-color="accent"></path><path d="M81.783 53.818L78.607 55.715A0.98 0.98 0 0 0 78.179 56.471V60.617C78.179 60.89 78.37 61 78.607 60.858L81.783 58.961A0.98 0.98 0 0 0 82.211 58.207V54.061C82.211 53.787 82.018 53.678 81.783 53.818" fill="#ffffff" data-fill-palette-color="accent"></path><path d="M81.783 63.484L78.607 65.382A0.97 0.97 0 0 0 78.179 66.136V70.282C78.179 70.555 78.37 70.664 78.607 70.524L81.783 68.627C82.017 68.485 82.211 68.147 82.211 67.872V63.726C82.211 63.453 82.018 63.343 81.783 63.484" fill="#ffffff" data-fill-palette-color="accent"></path><path d="M87.037 22.986L55.094 4.543C53.688 3.732 51.881 3.285 50 3.285 48.121 3.285 46.312 3.732 44.907 4.543L12.964 22.986C10.06 24.662 7.87 28.454 7.87 31.808V68.693C7.87 72.045 10.06 75.838 12.964 77.513L44.907 95.956C46.312 96.768 48.12 97.214 50 97.214 51.881 97.214 53.688 96.768 55.094 95.956L87.037 77.513C89.939 75.837 92.131 72.044 92.131 68.693V31.808C92.131 28.454 89.939 24.662 87.037 22.986M33.953 82.725L15.955 72.333C14.893 71.721 13.853 69.918 13.853 68.693V59.3L23.855 53.525A1 1 0 0 1 23.949 53.525L33.953 59.3zM60.035 86.197L52.437 90.583 52.101 90.777C51.607 91.061 50.822 91.232 49.999 91.232 49.177 91.232 48.392 91.061 47.897 90.777L47.562 90.583 39.934 86.18V35.184A1 1 0 0 1 39.981 35.102L47.578 30.716 48.43 28.564 49.389 26.135A2.097 2.097 0 1 1 50.608 26.135L51.569 28.564 52.43 30.74 59.987 35.103A0.5 0.5 0 0 1 60.034 35.185zM86.148 68.693C86.148 69.918 85.107 71.72 84.046 72.333L66.191 82.643 66.017 82.743V49.487L76.021 43.712A0.5 0.5 0 0 1 76.115 43.712L86.148 49.505zM86.148 42.598L79.002 38.472C77.273 37.475 74.861 37.475 73.133 38.472L66.018 42.58V35.065C66.018 33.07 64.811 30.981 63.082 29.982L57.619 26.827A8.1 8.1 0 0 0 58.08 24.129C58.08 19.673 54.455 16.049 50 16.049S41.921 19.673 41.921 24.129C41.921 25.056 42.077 25.959 42.378 26.812L36.888 29.981C35.16 30.98 33.953 33.069 33.953 35.064V52.393L26.837 48.285C25.109 47.287 22.696 47.287 20.968 48.285L13.852 52.393V31.808C13.852 30.582 14.893 28.779 15.954 28.166L47.898 9.724C48.393 9.438 49.178 9.268 50 9.268S51.607 9.438 52.102 9.724L84.047 28.167C85.108 28.78 86.149 30.583 86.149 31.809V42.598z" fill="#ffffff" data-fill-palette-color="accent"></path></g></svg></g></svg></g><g></g></svg></g><defs></defs></svg><rect width="355.4166947343737" height="247.2" fill="none" stroke="none" visibility="hidden"></rect></g></svg></g></svg>